#!OML:ASF H:\charlestonDancing\Project 1\Capture day 1\Session 1\femaleDancer.ASF
:FULLY-SPECIFIED
:DEGREES
154
root -0.18578 17.3375 4.77116 511.784 -87.0904 -499.102
lowerback 22.8821 -4.27215 4.40332
upperback 5.85288 -4.96361 -0.269922
thorax -6.66665 -2.61233 -1.37794
lowerneck 8.70588 14.8608 14.1239
upperneck -6.01316 20.5957 -19.076
head 0.351681 10.7928 -7.83465
rclavicle -3.4191e-014 3.4191e-014
rhumerus -48.7108 -26.5568 -52.1718
rradius 101.444
rwrist -45.5357
rhand -14.7717 -32.9372
rfingers 7.12502
rthumb 11.3849 -62.6082
lclavicle -3.4191e-014 3.4191e-014
lhumerus -32.6407 3.32654 70.8525
lradius 67.8992
lwrist 5.34572
lhand -28.1542 14.1288
lfingers 7.12502
lthumb -1.53485 44.103
rfemur -34.3191 7.59552 22.7037
rtibia 44.5521
rfoot -21.8967 0.977495
rtoes -14.4574
lfemur -43.4246 -1.48828 -19.3938
ltibia 53.1287
lfoot -13.492 -11.4405
ltoes -17.2976
155
root -0.0511501 17.2184 4.69508 472.175 -89.0394 -461.203
lowerback 24.2603 -4.64151 3.67812
upperback 6.29606 -5.59581 -0.352786
thorax -6.86252 -2.91764 -0.796962
lowerneck 8.33348 14.8305 14.1698
upperneck -5.36212 20.5902 -18.6634
head 0.554928 10.7493 -7.65488
rclavicle -3.22031e-014 5.28767e-014
rhumerus -49.7769 -26.3035 -51.4589
rradius 102.943
rwrist -45.5349
rhand -14.9846 -33.4832
rfingers 7.12502
rthumb 11.1796 -63.1653
lclavicle -3.22031e-014 5.28767e-014
lhumerus -28.0733 1.61109 71.8996
lradius 72.507
lwrist 4.01171
lhand -27.4991 14.4147
lfingers 7.12502
lthumb -0.902129 44.3925
rfemur -33.918 5.56223 22.5873
rtibia 46.6908
rfoot -22.6894 0.174369
rtoes -13.1155
lfemur -43.0911 -1.87344 -20.5157
ltibia 56.6979
lfoot -15.9067 -11.3922
ltoes -18.5706
156
root 0.0801559 17.079 4.63486 440.464 -83.8204 -429.644
lowerback 24.5146 -5.61508 8.75408
upperback 6.24668 -5.51202 0.872332
thorax -7.31803 -2.94586 -2.30191
lowerneck 8.25381 14.8117 14.2558
upperneck -4.85997 20.6192 -17.9252
head 0.640256 10.727 -7.42027
rclavicle 1.19271e-015 -7.15625e-015
rhumerus -50.4916 -25.9681 -51.0511
rradius 103.7
rwrist -45.3137
rhand -14.8154 -33.8026
rfingers 7.12502
rthumb 11.3427 -63.4758
lclavicle 1.19271e-015 -7.15625e-015
lhumerus -23.7121 -0.0794658 72.3913
lradius 76.4128
lwrist 2.49498
lhand -27.4657 13.6295
lfingers 7.12502
lthumb -0.869834 43.6075
rfemur -34.5486 4.68191 28.5902
rtibia 47.782
rfoot -22.8411 -0.730345
rtoes -11.6227
lfemur -45.0749 -0.865665 -15.1731
ltibia 61.0145
lfoot -16.9812 -10.9992
ltoes -19.0625
157
root 0.169654 17.0131 4.59764 434.633 -83.8243 -423.656
lowerback 24.2582 -5.78893 8.23932
upperback 6.29851 -5.89524 0.686466
thorax -7.15136 -3.11419 -2.11748
lowerneck 8.63819 15.0528 14.1762
upperneck -5.10274 20.9656 -17.2312
head 0.472935 10.8944 -7.2311
rclavicle 4.45278e-014 -4.13472e-014
rhumerus -50.0567 -25.3953 -51.763
rradius 104.053
rwrist -44.9592
rhand -14.8403 -33.8107
rfingers 7.12502
rthumb 11.3188 -63.4853
lclavicle 4.45278e-014 -4.13472e-014
lhumerus -19.2946 -0.802956 72.3503
lradius 79.7208
lwrist 1.54377
lhand -27.2495 12.3622
lfingers 7.12502
lthumb -0.661023 42.3409
rfemur -35.5058 3.66562 28.6446
rtibia 48.6009
rfoot -22.9232 -0.411251
rtoes -11.2976
lfemur -45.9391 0.168041 -15.8603
ltibia 64.6395
lfoot -18.4964 -9.32657
ltoes -21.005
158
root 0.246905 16.9909 4.55692 431.992 -83.5675 -421.296
lowerback 24.6747 -6.00966 7.64088
upperback 6.41848 -6.30305 0.594765
thorax -7.22477 -3.30309 -1.7255
lowerneck 9.54464 15.4226 14.4192
upperneck -5.59166 21.5464 -17.2857
head 0.309206 11.2211 -7.33666
rclavicle 2.3059e-014 1.98785e-014
rhumerus -49.3065 -24.3732 -52.8279
rradius 104.299
rwrist -44.954
rhand -15.2913 -33.9064
rfingers 7.12502
rthumb 10.8838 -63.6043
lclavicle 2.3059e-014 1.98785e-014
lhumerus -14.893 -1.09011 72.0746
lradius 82.3938
lwrist 1.58627
lhand -26.8778 11.697
lfingers 7.12502
lthumb -0.302076 41.6765
rfemur -35.4747 2.73338 29.1095
rtibia 48.6024
rfoot -22.8045 0.106958
rtoes -11.626
lfemur -45.7358 1.639 -16.2595
ltibia 67.9393
lfoot -18.5433 -7.56805
ltoes -19.9288
159
root 0.314963 17.0124 4.51484 430.97 -83.5205 -420.383
lowerback 24.9969 -6.13255 6.59902
upperback 6.52502 -6.70358 0.530249
thorax -7.20993 -3.4823 -1.06634
lowerneck 10.3245 15.7645 15.1164
upperneck -5.66163 22.1533 -18.0336
head 0.430547 11.5747 -7.65173
rclavicle 6.67916e-014 -7.95139e-014
rhumerus -48.2678 -23.1244 -54.0875
rradius 104.333
rwrist -45.0929
rhand -15.6275 -34.2135
rfingers 7.12502
rthumb 10.5595 -63.9282
lclavicle 6.67916e-014 -7.95139e-014
lhumerus -10.4533 -1.14087 71.6882
lradius 84.3
lwrist 2.05959
lhand -26.9174 11.7096
lfingers 7.12502
lthumb -0.340302 41.689
rfemur -35.4055 1.98575 29.3906
rtibia 48.2274
rfoot -22.506 0.600014
rtoes -11.9328
lfemur -45.1244 3.23478 -16.7888
ltibia 70.4143
lfoot -18.8777 -6.55839
ltoes -21.3185
160
root 0.364825 17.0791 4.47941 430.88 -83.4162 -420.347
lowerback 25.1951 -6.18904 5.74827
upperback 6.63152 -6.98967 0.413684
thorax -7.13812 -3.60962 -0.618361
lowerneck 10.8767 16.098 15.7624
upperneck -5.47944 22.7534 -18.3396
head 0.607018 11.8972 -7.79713
rclavicle -2.54444e-014 2.46493e-014
rhumerus -47.0366 -22.2174 -55.5131
rradius 103.743
rwrist -44.7591
rhand -15.5346 -34.3108
rfingers 7.12502
rthumb 10.6491 -64.0209
lclavicle -2.54444e-014 2.46493e-014
lhumerus -6.0415 -1.44152 71.2445
lradius 85.482
lwrist 2.33349
lhand -27.3013 11.9507
lfingers 7.12502
lthumb -0.711111 41.9293
rfemur -34.9745 1.35268 29.7214
rtibia 47.1393
rfoot -22.0089 1.18995
rtoes -11.616
lfemur -44.0309 4.82056 -17.1856
ltibia 72.2972
lfoot -17.1844 -5.56374
ltoes -17.7366
161
root 0.405868 17.1761 4.45263 431.24 -83.1344 -420.56
lowerback 25.2647 -6.24158 5.27787
upperback 6.63656 -7.17583 0.285
thorax -7.14548 -3.692 -0.431567
lowerneck 11.1524 16.3347 16.3844
upperneck -5.11233 23.2115 -18.314
head 0.815782 12.1224 -7.81928
rclavicle 1.60618e-013 -2.38542e-014
rhumerus -45.4596 -21.5094 -56.8965
rradius 102.279
rwrist -44.0446
rhand -15.395 -34.3927
rfingers 7.12502
rthumb 10.7837 -64.0959
lclavicle 1.60618e-013 -2.38542e-014
lhumerus -1.69708 -1.97448 70.778
lradius 85.8313
lwrist 2.23543
lhand -27.787 11.9598
lfingers 7.12502
lthumb -1.18017 41.9363
rfemur -34.5021 0.797515 30.1906
rtibia 45.5784
rfoot -21.254 1.8199
rtoes -11.3448
lfemur -42.7575 6.2915 -17.4207
ltibia 73.6113
lfoot -15.1658 -4.23538
ltoes -16.3182
162
root 0.444579 17.2801 4.43049 430.762 -82.6616 -419.723
lowerback 25.2551 -6.37244 5.11292
upperback 6.52924 -7.37642 0.18353
thorax -7.26765 -3.78152 -0.378783
lowerneck 11.3541 16.4192 16.8788
upperneck -4.83773 23.434 -18.0609
head 0.925996 12.2199 -7.785
rclavicle -3.18055e-014 1.59028e-014
rhumerus -45.0147 -20.7467 -57.946
rradius 101.546
rwrist -43.79
rhand -15.4457 -34.5924
rfingers 7.12502
rthumb 10.7349 -64.2981
lclavicle -3.18055e-014 1.59028e-014
lhumerus 2.34602 -2.51244 70.3614
lradius 85.4635
lwrist 1.76536
lhand -28.267 10.9969
lfingers 7.12502
lthumb -1.64379 40.9703
rfemur -34.1147 0.204137 30.776
rtibia 43.7379
rfoot -20.2365 2.34922
rtoes -11.3151
lfemur -41.4576 7.44039 -17.5195
ltibia 74.4083
lfoot -12.7442 -2.62511
ltoes -14.8519
163
root 0.479763 17.3836 4.40971 427.935 -82.3174 -416.425
lowerback 24.9598 -6.47358 4.95709
upperback 6.51472 -7.56568 0.00223963
thorax -7.15528 -3.8657 -0.456545
lowerneck 11.4357 16.3011 17.345
upperneck -4.84277 23.348 -17.9095
head 0.930461 12.1648 -7.81267
rclavicle 2.46493e-014 -7.95139e-015
rhumerus -44.7001 -20.4372 -58.8191
rradius 100.708
rwrist -43.8749
rhand -15.5079 -34.4716
rfingers 7.12502
rthumb 10.6749 -64.1804
lclavicle 2.46493e-014 -7.95139e-015
lhumerus 6.36319 -3.32516 70.0174
lradius 84.5473
lwrist 1.35462
lhand -28.7202 9.83496
lfingers 7.12502
lthumb -2.08147 39.8046
rfemur -33.7485 -0.337386 31.0065
rtibia 41.8518
rfoot -19.2447 2.59695
rtoes -11.214
lfemur -39.9877 8.21816 -17.8921
ltibia 74.656
lfoot -10.3895 -1.01396
ltoes -14.9504
